<svg width="172" height="52" viewBox="0 0 172 52" version="1.1" xmlns="http://www.w3.org/2000/svg" xmlns:xlink="http://www.w3.org/1999/xlink">
<title>logo</title>
<desc>Created using Figma</desc>
<g id="Canvas" transform="translate(-1512 -1320)">
<g id="logo" filter="url(#filter0_d)">
<g id="Group">
<g id="Group">
<g id="Group">
<g id="Vector">
<use xlink:href="#path0_fill" transform="translate(1535.21 1332.68)" fill="#002F6A"/>
</g>
</g>
<g id="Group">
<g id="Vector">
<use xlink:href="#path1_fill" transform="translate(1525.66 1331.42)" fill="#002F6A"/>
</g>
<g id="Vector">
<use xlink:href="#path2_fill" transform="translate(1539.33 1330.97)" fill="#002F6A"/>
</g>
<g id="Vector">
<use xlink:href="#path3_fill" transform="translate(1546.06 1366.19)" fill="#002F6A"/>
</g>
<g id="Vector">
<use xlink:href="#path4_fill" transform="translate(1538.8 1350.01)" fill="#002F6A"/>
</g>
<g id="Vector">
<use xlink:href="#path5_fill" transform="translate(1538.8 1349.83)" fill="#002F6A"/>
</g>
<g id="Vector">
<use xlink:href="#path6_fill" transform="translate(1538.94 1349.91)" fill="#002F6A"/>
</g>
<g id="Vector">
<use xlink:href="#path7_fill" transform="translate(1546.18 1335.59)" fill="url(#paint7_linear)"/>
</g>
<g id="Vector">
<use xlink:href="#path8_fill" transform="translate(1545.91 1366.18)" fill="#002F6A"/>
</g>
<g id="Vector">
<use xlink:href="#path3_fill" transform="translate(1546.06 1366.19)" fill="#002F6A"/>
</g>
</g>
<g id="Group">
<g id="Vector">
<use xlink:href="#path9_fill" transform="translate(1539.33 1329.2)" fill="#FFFFFF"/>
</g>
<g id="Vector">
<use xlink:href="#path10_fill" transform="translate(1524.84 1341.44)" fill="#002F6A"/>
</g>
</g>
<g id="Group">
<g id="Vector">
<use xlink:href="#path11_fill" transform="translate(1512.42 1335.45)" fill="url(#paint12_linear)"/>
</g>
</g>
<g id="Group">
<g id="Vector">
<use xlink:href="#path12_fill" transform="translate(1525.16 1332.76)" fill="#002F6A"/>
</g>
<g id="Vector">
<use xlink:href="#path13_fill" transform="translate(1512.03 1320.66)" fill="#37342A"/>
</g>
<g id="Vector">
<use xlink:href="#path14_fill" transform="translate(1525.24 1320.98)" fill="#FFFFFF"/>
<use xlink:href="#path15_fill" transform="translate(1525.24 1320.98)" fill="#FFFFFF"/>
<use xlink:href="#path16_fill" transform="translate(1525.24 1320.98)" fill="#FFFFFF"/>
</g>
</g>
<g id="Group">
<g id="Vector">
<use xlink:href="#path17_fill" transform="translate(1512.46 1329.26)" fill="#FFFFFF"/>
</g>
<g id="Vector">
<use xlink:href="#path18_fill" transform="translate(1512.42 1335.45)" fill="#002F6A"/>
</g>
</g>
<g id="Group">
<g id="Vector">
<use xlink:href="#path19_fill" transform="translate(1525.18 1349.12)" fill="url(#paint20_linear)"/>
</g>
<g id="Vector">
<use xlink:href="#path20_fill" transform="translate(1526.55 1349.15)" fill="#002F6A"/>
</g>
</g>
<g id="Group">
<g id="Vector">
<use xlink:href="#path21_fill" transform="translate(1535.81 1349.44)" fill="url(#paint22_linear)"/>
</g>
</g>
</g>
</g>
<g id="Group">
<g id="Group">
<g id="Vector">
<use xlink:href="#path22_fill" transform="translate(1580.29 1335.67)" fill="#FFDC00"/>
<use xlink:href="#path23_fill" transform="translate(1580.29 1335.67)" fill="#FFDC00"/>
<use xlink:href="#path24_fill" transform="translate(1580.29 1335.67)" fill="#FFDC00"/>
<use xlink:href="#path25_fill" transform="translate(1580.29 1335.67)" fill="#FFDC00"/>
</g>
</g>
</g>
</g>
</g>
<defs>
<filter id="filter0_d" filterUnits="userSpaceOnUse" x="1512" y="1320" width="172" height="52" color-interpolation-filters="sRGB">
<feFlood flood-opacity="0" result="BackgroundImageFix"/>
<feColorMatrix in="SourceAlpha" type="matrix" values="0 0 0 0 0 0 0 0 0 0 0 0 0 0 0 0 0 0 255 0"/>
<feOffset dx="1" dy="1"/>
<feGaussianBlur stdDeviation="0.5"/>
<feColorMatrix type="matrix" values="0 0 0 0 0 0 0 0 0 0 0 0 0 0 0 0 0 0 0.42 0"/>
<feBlend mode="normal" in2="BackgroundImageFix" result="effect1_dropShadow"/>
<feBlend mode="normal" in="SourceGraphic" in2="effect1_dropShadow" result="shape"/>
</filter>
<linearGradient id="paint7_linear" x1="0" y1="0" x2="1" y2="0" gradientUnits="userSpaceOnUse" gradientTransform="matrix(-3.83563 -20.5138 20.692 -3.80261 -2.12761 26.4541)">
<stop offset="0.0220994" stop-color="#FFC86E"/>
<stop offset="0.972376" stop-color="#FFDC00"/>
</linearGradient>
<linearGradient id="paint12_linear" x1="0" y1="0" x2="1" y2="0" gradientUnits="userSpaceOnUse" gradientTransform="matrix(-3.76326 -20.3401 20.3016 -3.7704 -2.08747 26.23)">
<stop offset="0.0220994" stop-color="#FFC86E"/>
<stop offset="0.972376" stop-color="#FFDC00"/>
</linearGradient>
<linearGradient id="paint20_linear" x1="0" y1="0" x2="1" y2="0" gradientUnits="userSpaceOnUse" gradientTransform="matrix(-3.08213 -13.8722 16.6271 -2.57146 -1.70965 17.8892)">
<stop offset="0.0220994" stop-color="#FFC86E"/>
<stop offset="0.972376" stop-color="#FFDC00"/>
</linearGradient>
<linearGradient id="paint22_linear" x1="0" y1="0" x2="1" y2="0" gradientUnits="userSpaceOnUse" gradientTransform="matrix(-3.19707 -13.6405 17.2471 -2.52851 -1.7734 17.5904)">
<stop offset="0.0220994" stop-color="#FFC86E"/>
<stop offset="0.972376" stop-color="#FFDC00"/>
</linearGradient>
<path id="path0_fill" d="M 0.071452 2.16177e-07C 0.0857424 2.16177e-07 0.085742 0.0141674 0.100032 0.0141674C 0.114323 0.0283348 0.128613 0.0425024 0.128613 0.0708371L 0.128613 0.0283346L 0.071452 2.16177e-07ZM 0.071452 2.16177e-07C 0.0857424 2.16177e-07 0.085742 0.0141674 0.100032 0.0141674C 0.114323 0.0283348 0.128613 0.0425024 0.128613 0.0708371L 0.128613 0.0283346L 0.071452 2.16177e-07ZM 1.15752 0.0283346L 0.628777 0.354185L 0.128613 0.0425017L 0.071452 2.16177e-07C 0.0857424 2.16177e-07 0.085742 0.0141674 0.100032 0.0141674C 0.114323 0.0283348 0.128613 0.0425024 0.128613 0.0708371L 0.128613 0.198344L 4.06158e-15 0.113339L 4.06158e-15 0.283348L 0.128613 0.368352L 0.142904 0.368352L 0.557325 0.623365C 0.585906 0.637533 0.600196 0.6517 0.628777 0.6517C 0.657358 0.6517 0.685939 0.6517 0.700229 0.637533L 1.15752 0.368352L 1.15752 0.0850043C 1.17181 0.0566695 1.1861 0.028335 1.21468 2.16177e-07L 1.15752 0.0283346ZM 0.071452 2.16177e-07C 0.0857424 2.16177e-07 0.085742 0.0141674 0.100032 0.0141674C 0.114323 0.0283348 0.128613 0.0425024 0.128613 0.0708371L 0.128613 0.0283346L 0.071452 2.16177e-07ZM 0.071452 2.16177e-07C 0.0857424 2.16177e-07 0.085742 0.0141674 0.100032 0.0141674C 0.114323 0.0283348 0.128613 0.0425024 0.128613 0.0708371L 0.128613 0.0283346L 0.071452 2.16177e-07Z"/>
<path id="path1_fill" d="M 6.27349 3.89603L 0.285808 0.170008L 0.142904 0.0850041L -4.36109e-07 -2.01331e-15L 0.114323 7.55122L 0.114323 7.66456L 0.257227 7.57955L 0.400131 7.49455L 6.31636 3.93853L 6.27349 3.89603Z"/>
<path id="path2_fill" d="M 6.65933 0.0850045L 6.51642 0.170009L 4.36109e-07 4.10854L 6.51642 8.20292L 6.65933 8.28792L 6.80223 8.37293L 6.80223 4.32354e-07L 6.65933 0.0850045ZM 9.93183 10.5122L 15.3908 7.22537L 9.93183 10.5122ZM 20.0494 4.19355C 20.0494 4.19355 20.0351 4.19355 20.0494 4.19355C 20.0494 4.19355 20.0494 4.20771 20.0494 4.19355C 20.0494 4.20771 20.0494 4.20771 20.0494 4.19355Z"/>
<path id="path3_fill" d="M 0.0126501 -6.10352e-06C -0.00421671 -6.10352e-06 -0.00421671 -6.10352e-06 0.0126501 -6.10352e-06C -0.00421671 -6.10352e-06 -0.00421671 -6.10352e-06 0.0126501 -6.10352e-06C -0.00421671 -6.10352e-06 -0.00421671 -6.10352e-06 0.0126501 -6.10352e-06Z"/>
<path id="path4_fill" d="M 0.142905 -4.33343e-07L 0.142905 0.170397L 8.72217e-07 0.283995L 8.72217e-07 0.0993977L 0.142905 -4.33343e-07Z"/>
<path id="path5_fill" d="M 0.142905 -8.66687e-07L 0.142905 0.184597L 8.72217e-07 0.283995L 8.72217e-07 0.113598L 0.142905 -8.66687e-07Z"/>
<path id="path6_fill" d="M 0.142905 0L 0.142905 0.170397L 8.72217e-07 0.269795L 8.72217e-07 0.0993981L 0.142905 0Z"/>
<path id="path7_fill" d="M 12.8757 2.16177e-07L 6.64504 24.0279L -1.74443e-06 30.1057L 1.70056 16.675L 3.11531 5.93939L 8.53137 2.6068L 8.54566 2.59263L 12.8757 2.16177e-07Z"/>
<path id="path8_fill" d="M 0.0283435 0.0140806C 0.0141722 0.0140806 -8.6495e-07 -1.71893e-06 -8.6495e-07 -1.71893e-06C 0.0141705 -1.71893e-06 0.0283435 0.0140806 0.0283435 0.0140806Z"/>
<path id="path9_fill" d="M 19.6922 6.07781L 9.78893 12.0423L 4.36109e-07 5.87947L 6.51642 1.94093L 6.65933 1.85593L 6.80223 1.77092L 9.76035 -1.08089e-07L 19.6922 6.07781Z"/>
<path id="path10_fill" d="M 10.5034 -4.32354e-07L 10.3748 0.0991709L 10.2319 0.198344L 7.5882 2.02594L 7.4453 2.12511L 3.38683 4.94442L 3.25821 5.02942L 3.1296 5.11443L 0.0857424 7.23954L 0.0714511 7.2537C 0.0714511 7.2537 0.0571621 7.2537 0.0571621 7.26787C 0.0571621 7.26787 0.0571612 7.26787 0.0428708 7.28204L 0.0285817 7.29621L 0.0142904 7.31037C 0.0142904 7.32454 -8.72217e-07 7.32454 -8.72217e-07 7.33871C -8.72217e-07 7.35288 -8.72217e-07 7.36704 -8.72217e-07 7.36704L -8.72217e-07 7.38121C -8.72217e-07 7.42371 0.0285812 7.45205 0.0571621 7.48038L 0.157194 7.55122L 0.31439 7.66456L 0.500163 7.80623L 0.743102 7.99041L 1.70056 8.69878L 7.43101 12.9773L 7.57391 13.0907L 7.57391 12.7365L 0.385842 7.36704L 10.4892 0.340018L 10.4892 -4.32354e-07L 10.5034 -4.32354e-07Z"/>
<path id="path11_fill" d="M 12.6327 29.8507L 6.00197 23.7729L 0 2.16177e-07L 9.43167 6.10614L 9.48883 6.13448L 12.6327 29.8507Z"/>
<path id="path12_fill" d="M 19.9923 17.6526L 13.8903 21.8745L 13.7474 21.9736L 13.6045 22.0728L 13.5616 27.5556C 13.5616 27.5981 13.5759 27.6406 13.6188 27.6689L 17.8773 31.0974L 18.1059 30.9132L 19.7922 29.6098L 21.3927 16.6892L 19.9923 17.6526ZM 13.6045 21.7186L 13.7474 21.6194L 13.8903 21.5203L 21.3213 16.3775L 18.2488 14.1532L 18.1345 14.0682L 18.0202 13.9832L 13.976 11.0931L 13.8331 10.9939L 13.6902 10.8947L 11.4895 9.30798L 11.3466 9.2088L 11.2037 9.10963L 11.2037 2.16177e-07C 11.2037 0.0141676 11.2037 0.0283343 11.2037 0.0425017L 11.2037 19.041C 11.2037 19.0976 11.2323 19.1401 11.2894 19.1685C 11.3037 19.1826 11.3323 19.1826 11.3466 19.1826C 11.3752 19.1826 11.4037 19.1685 11.4323 19.1543L 13.633 17.5392L 13.6045 21.7186ZM 10.1748 2.16177e-07L 10.1748 9.02463L 10.0462 9.1238L 9.90325 9.22297L 7.25953 11.0647L 7.11662 11.1639L 3.30108 13.8132L 3.17247 13.8982L 3.04386 13.9832L 0.0714516 16.0517L 1.41475 17.0575L 7.11662 21.3219L 7.25953 21.4353L 7.25953 17.0009L 9.96041 18.9276C 9.98899 18.9418 10.0176 18.956 10.0462 18.956C 10.0747 18.956 10.089 18.956 10.1176 18.9418C 10.1605 18.9135 10.1891 18.871 10.1891 18.8143L 10.1891 0.05667C 10.1891 0.0283352 10.1891 0.0141676 10.1748 2.16177e-07ZM 7.11662 21.6761L 1.38617 17.3976L -4.36109e-07 16.3633L 1.37188 30.049L 2.71518 31.0549L 7.18807 27.6122C 7.23094 27.5839 7.24523 27.5414 7.24523 27.4989L 7.24523 21.7894L 7.11662 21.6761Z"/>
<path id="path13_fill" d="M 47.4013 14.5853C 47.4013 14.5853 47.4013 14.5712 47.387 14.557C 47.387 14.557 47.387 14.557 47.387 14.5428L 47.3727 14.5287C 47.3727 14.5287 47.3727 14.5145 47.3584 14.5145C 47.3441 14.5145 47.3441 14.5003 47.3298 14.5003L 47.3155 14.5003L 37.1122 8.2525C 37.0693 8.22417 37.0121 8.22417 36.955 8.2525L 34.0826 9.99509L 34.0826 6.43908C 34.0826 6.42491 34.0826 6.42491 34.0826 6.41074L 34.0826 6.39658C 34.0826 6.39658 34.0826 6.38241 34.0683 6.38241L 34.054 6.36824L 34.0397 6.35407L 34.0255 6.33991C 34.0255 6.33991 34.0254 6.33991 34.0112 6.33991L 24.0079 0.0212511C 23.965 -0.0070837 23.9078 -0.0070837 23.8507 0.0212511L 13.633 6.19823C 13.5902 6.22657 13.5616 6.26907 13.5616 6.32574L 13.5616 6.33991L 13.5616 6.35407L 13.633 10.4343L 10.2462 8.30917C 10.2033 8.28084 10.1462 8.28084 10.089 8.30917L 0.0857427 14.3445C 0.0857427 14.3445 0.071452 14.3445 0.071452 14.3586C 0.0571616 14.3586 0.0571615 14.3728 0.0428711 14.3728L 0.0285809 14.387C 0.0285809 14.387 0.0285811 14.387 0.0142907 14.4011C 0.0142907 14.4011 0.0142907 14.4011 0.0142907 14.4153C 0.0142907 14.4153 0.0142904 14.4295 0 14.4437C 0 14.472 0 14.4862 0 14.5145L 6.102 38.6699C 6.102 38.6982 6.11629 38.7266 6.14487 38.7407L 13.09 45.0877L 13.1043 45.1019C 13.1043 45.1019 13.1186 45.1019 13.1186 45.116C 13.1329 45.1302 13.1329 45.1302 13.1472 45.1302C 13.1615 45.1444 13.19 45.1444 13.2043 45.1444C 13.2186 45.1444 13.2329 45.1444 13.2329 45.1444L 13.2472 45.1444C 13.2615 45.1444 13.2615 45.1444 13.2615 45.1302C 13.2615 45.1302 13.2758 45.1302 13.2758 45.116L 15.6051 43.3168L 15.7194 43.2318L 15.8338 43.1468L 14.4905 42.1409L 13.19 28.4443L 14.5048 29.4894L 20.2352 33.768L 20.3781 33.8813L 23.4791 36.2048L 23.5506 36.2473C 23.5792 36.2614 23.6077 36.2756 23.622 36.2756C 23.6506 36.2756 23.6792 36.2614 23.7078 36.2473L 23.7649 36.2048L 26.7231 34.1647L 26.866 34.0655L 27.0089 33.9663L 33.1109 29.7444L 34.497 28.781L 32.8965 41.7017L 31.2102 43.0051L 30.9816 43.1893L 31.2102 43.3735L 33.854 45.5127C 33.854 45.5127 33.8683 45.5127 33.8683 45.5269C 33.8825 45.5269 33.8825 45.5411 33.8968 45.5411C 33.8968 45.5411 33.8968 45.5411 33.9111 45.5411C 33.9254 45.5411 33.9397 45.5411 33.954 45.5411C 33.9683 45.5411 33.9969 45.5411 34.0112 45.5269L 34.0255 45.5269C 34.0397 45.5269 34.0397 45.5127 34.054 45.5127L 41.0135 39.1374C 41.0277 39.1232 41.042 39.0949 41.0563 39.0666L 47.4013 14.6703C 47.4013 14.6562 47.4013 14.642 47.4013 14.642C 47.4013 14.6137 47.4013 14.5995 47.4013 14.5853ZM 6.38781 38.5565L 0.385841 14.7837L 9.81751 20.8898L 13.0328 44.6344L 6.38781 38.5565ZM 37.055 8.53585L 46.9869 14.6278L 37.0836 20.5781L 27.2947 14.4295L 33.8111 10.4768L 37.055 8.53585ZM 13.7759 10.8451L 13.9189 10.9301L 19.9065 14.6562L 14.0332 18.1272L 13.8903 18.2122L 13.7474 18.2972L 13.633 10.7601L 13.7759 10.8451ZM 27.0232 33.6263L 26.8802 33.7255L 26.7373 33.8246L 23.6506 35.9639L 14.5476 29.1494L 13.2043 28.1435L 16.1767 26.0751L 16.3053 25.9901L 16.434 25.9051L 20.2495 23.2558L 20.3924 23.1566L 23.0361 21.3148L 23.179 21.2157L 23.3076 21.1165L 23.3076 12.0919C 23.3076 12.0777 23.2934 12.0494 23.2791 12.0352C 23.2648 12.0352 23.2648 12.021 23.2505 12.021L 13.976 6.31157L 23.9221 0.304599L 33.6825 6.42491L 24.3937 12.0069C 24.3651 12.021 24.3366 12.0494 24.3366 12.0919L 24.3366 21.2015L 24.4795 21.3007L 24.6224 21.3998L 26.8231 22.9866L 26.966 23.0858L 27.1089 23.1849L 31.1388 26.0892L 31.2531 26.1742L 31.3674 26.2593L 34.4399 28.4835L 27.0232 33.6263ZM 40.7991 38.9532L 34.1541 45.031L 35.8546 31.6004L 37.2694 20.8647L 42.6711 17.5321L 42.6997 17.518L 47.0297 14.9112L 40.7991 38.9532Z"/>
<path id="path14_fill" d="M 20.4781 6.10614L 11.1894 11.6881C 11.1608 11.7023 11.1322 11.7306 11.1322 11.7731L 11.1322 11.9006L 10.1176 11.9148L 10.1033 11.9148L 10.1033 11.7873C 10.1033 11.7731 10.089 11.7448 10.0747 11.7306C 10.0604 11.7306 10.0604 11.7164 10.0462 11.7164L 0.771684 6.00697L 10.7178 0L 20.4781 6.10614Z"/>
<path id="path15_fill" d="M 10.4463 35.631L 10.432 35.6451L 1.3433 28.8306L 7.04517 33.095L 7.18808 33.1942L 10.4463 35.631Z"/>
<path id="path16_fill" d="M 21.2498 28.2923L 13.8188 33.3359L 13.6759 33.435L 13.533 33.5342L 10.4463 35.631L 7.18807 33.2367L 7.04517 33.1375L 1.3433 28.9298L 0 27.9523L 2.9867 25.9121L 3.10102 25.8271L 3.22963 25.7421L 7.04517 23.1353L 7.18807 23.0362L 9.8318 21.2369L 9.9747 21.1377L 10.1033 21.0386L 10.1033 11.6881L 11.1322 11.6881L 11.1322 21.1094L 11.2751 21.2086L 11.418 21.3077L 13.6188 22.8662L 13.7617 22.9653L 13.9046 23.0645L 17.9202 25.9263L 18.0488 26.0113L 18.1631 26.0963L 21.2498 28.2923Z"/>
<path id="path17_fill" d="M 19.535 6.10614L 13.6188 9.66216L 13.4759 9.733L 13.3329 9.83217L 9.57457 12.0848L -1.09027e-07 5.87947L 9.74606 1.08089e-07L 13.2043 2.16761L 13.3472 2.25261L 13.5044 2.33762L 19.4778 6.06364L 19.535 6.10614Z"/>
<path id="path18_fill" d="M 0 2.16177e-07L 9.43167 6.10614L 0 2.16177e-07Z"/>
<path id="path19_fill" d="M 10.3463 7.74956L 10.3463 20.3585L 2.71518 14.6774L 1.37188 13.6715L 4.36109e-07 -8.64709e-07L 1.37188 1.03422L 7.24524 5.42611L 10.3463 7.74956Z"/>
<path id="path20_fill" d="M 9.26018 20.316L 9.26018 7.72123L 9.20302 7.76373C 9.17444 7.77789 9.14586 7.79206 9.11728 7.79206C 9.0887 7.79206 9.06012 7.77789 9.04583 7.76373L 8.97437 7.72123L 5.87336 5.38361L 5.73045 5.27027L -8.72217e-07 0.991718L 5.87336 5.38361L 8.97437 7.70706L 8.97437 20.316L 1.3433 14.6349L 1.22897 14.7199L 1.11465 14.8049L 9.01725 20.6986C 9.03154 20.7127 9.04583 20.7127 9.04583 20.7269C 9.06012 20.7411 9.0887 20.7411 9.10299 20.7411C 9.11728 20.7411 9.11728 20.7411 9.13157 20.7411L 9.14586 20.7411C 9.16015 20.7411 9.17444 20.7269 9.18873 20.7127L 9.20302 20.7127L 16.6912 14.8899L 16.4625 14.7057L 9.26018 20.316ZM 12.2183 5.34111L 12.3612 5.24193L 12.5041 5.14276L 19.9351 8.64709e-07L 12.5041 5.12859L 12.3612 5.22777L 12.2183 5.34111L 9.13157 7.46621L 12.2183 5.34111Z"/>
<path id="path21_fill" d="M 10.7321 -4.32354e-07L 9.13157 12.9207L 7.45959 14.2241L 7.23094 14.4082L -4.36109e-07 20.0185L -4.36109e-07 7.42371L 2.95811 5.38361L 3.10102 5.28444L 3.24392 5.18527L 9.34593 0.963383L 10.7321 -4.32354e-07Z"/>
<path id="path22_fill" d="M 0 15.9245L 0 0L 23.2705 0L 23.2705 15.9245L 19.3844 15.9245L 19.3844 4.03783L 4.09303 4.03783L 4.09303 15.9245L 0 15.9245Z"/>
<path id="path23_fill" d="M 30.3758 3.17582L 49.7602 3.13045L 49.7602 0L 28.4213 0C 28.4213 0 26.4897 0.204159 26.4897 2.13234C 26.4897 4.06051 26.4897 7.87151 26.4897 7.87151C 26.4897 7.87151 26.4897 11.9093 26.4897 13.8148C 26.4897 15.7203 28.4213 15.9472 28.4213 15.9472L 49.7602 15.9472L 49.7602 12.1135L 30.3758 12.1135L 30.3758 7.87151L 30.3758 3.17582Z"/>
<path id="path24_fill" d="M 56.6586 3.17582L 76.043 3.10777L 76.043 0L 54.727 0C 54.727 0 52.7955 0.204159 52.7955 2.13234C 52.7955 4.06051 52.7955 7.87151 52.7955 7.87151C 52.7955 7.87151 52.7955 11.9093 52.7955 13.8148C 52.7955 15.7203 54.727 15.9472 54.727 15.9472L 76.066 15.9472L 76.066 12.1135L 56.6816 12.1135L 56.6816 7.87151L 56.6816 3.17582L 56.6586 3.17582Z"/>
<path id="path25_fill" d="M 84.2291 5.104L 92.4151 0L 100.394 0L 87.4713 7.4405L 101.682 15.9245L 93.4959 15.9245L 83.3783 9.98116L 82.2975 9.98116L 82.2975 15.9245L 78.2045 15.9245L 78.2045 0L 82.5045 0L 82.5045 5.104L 84.2291 5.104Z"/>
</defs>
</svg>
