<svg width="18" height="18" viewBox="0 0 18 18" version="1.1" xmlns="http://www.w3.org/2000/svg" xmlns:xlink="http://www.w3.org/1999/xlink">
<title>Vector</title>
<desc>Created using Figma</desc>
<g id="Canvas" transform="translate(-8497 -3045)">
<g id="Vector">
<use xlink:href="#path0_fill" transform="translate(8497 3045)" fill="#FFDC00"/>
<use xlink:href="#path1_fill" transform="translate(8497 3045)" fill="#FFDC00"/>
</g>
</g>
<defs>
<path id="path0_fill" d="M 0.510114 1.62534C 0.202059 1.31728 0.202059 0.817809 0.510114 0.509747C 0.818169 0.201685 1.31763 0.201685 1.62568 0.509747L 17.769 16.6534C 18.077 16.9614 18.077 17.4609 17.769 17.769C 17.4609 18.077 16.9614 18.077 16.6534 17.769L 0.510114 1.62534Z"/>
<path id="path1_fill" d="M 16.3743 0.231046C 16.6824 -0.0770154 17.1818 -0.0770154 17.4899 0.231046C 17.7979 0.539108 17.7979 1.03858 17.4899 1.34664L 1.34661 17.4903C 1.03855 17.7983 0.539097 17.7983 0.231042 17.4903C -0.0770138 17.1822 -0.0770138 16.6827 0.231042 16.3747L 16.3743 0.231046Z"/>
</defs>
</svg>
