<svg width="41" height="43" viewBox="0 0 41 43" version="1.1" xmlns="http://www.w3.org/2000/svg" xmlns:xlink="http://www.w3.org/1999/xlink">
<title>Group</title>
<desc>Created using Figma</desc>
<g id="Canvas" transform="translate(-1457 -1436)">
<g id="Group">
<g id="Group">
<g id="Vector">
<use xlink:href="#path0_fill" transform="translate(1477.04 1446.41)" fill="#002F6A"/>
</g>
</g>
<g id="Group">
<g id="Vector">
<use xlink:href="#path1_fill" transform="translate(1468.78 1445.32)" fill="#002F6A"/>
</g>
<g id="Vector">
<use xlink:href="#path2_fill" transform="translate(1480.59 1444.93)" fill="#002F6A"/>
</g>
<g id="Vector">
<use xlink:href="#path3_fill" transform="translate(1486.42 1475.44)" fill="#002F6A"/>
</g>
<g id="Vector">
<use xlink:href="#path4_fill" transform="translate(1480.14 1461.43)" fill="#002F6A"/>
</g>
<g id="Vector">
<use xlink:href="#path5_fill" transform="translate(1480.14 1461.27)" fill="#002F6A"/>
</g>
<g id="Vector">
<use xlink:href="#path6_fill" transform="translate(1480.26 1461.34)" fill="#002F6A"/>
</g>
<g id="Vector">
<use xlink:href="#path7_fill" transform="translate(1486.52 1448.93)" fill="url(#paint7_linear)"/>
</g>
<g id="Vector">
<use xlink:href="#path8_fill" transform="translate(1486.29 1475.43)" fill="#002F6A"/>
</g>
<g id="Vector">
<use xlink:href="#path3_fill" transform="translate(1486.42 1475.44)" fill="#002F6A"/>
</g>
</g>
<g id="Group">
<g id="Vector">
<use xlink:href="#path9_fill" transform="translate(1480.59 1443.4)" fill="#FFFFFF"/>
</g>
<g id="Vector">
<use xlink:href="#path10_fill" transform="translate(1468.07 1454)" fill="#002F6A"/>
</g>
</g>
<g id="Group">
<g id="Vector">
<use xlink:href="#path11_fill" transform="translate(1457.33 1448.81)" fill="url(#paint12_linear)"/>
</g>
</g>
<g id="Group">
<g id="Vector">
<use xlink:href="#path12_fill" transform="translate(1468.35 1446.48)" fill="#002F6A"/>
</g>
<g id="Vector">
<use xlink:href="#path13_fill" transform="translate(1457 1436)" fill="#37342A"/>
</g>
<g id="Vector">
<use xlink:href="#path14_fill" transform="translate(1468.41 1436.28)" fill="#FFFFFF"/>
<use xlink:href="#path15_fill" transform="translate(1468.41 1436.28)" fill="#FFFFFF"/>
<use xlink:href="#path16_fill" transform="translate(1468.41 1436.28)" fill="#FFFFFF"/>
</g>
</g>
<g id="Group">
<g id="Vector">
<use xlink:href="#path17_fill" transform="translate(1457.37 1443.44)" fill="#FFFFFF"/>
</g>
<g id="Vector">
<use xlink:href="#path18_fill" transform="translate(1457.33 1448.81)" fill="#002F6A"/>
</g>
</g>
<g id="Group">
<g id="Vector">
<use xlink:href="#path19_fill" transform="translate(1468.36 1460.65)" fill="url(#paint20_linear)"/>
</g>
<g id="Vector">
<use xlink:href="#path20_fill" transform="translate(1469.55 1460.68)" fill="#002F6A"/>
</g>
</g>
<g id="Group">
<g id="Vector">
<use xlink:href="#path21_fill" transform="translate(1477.55 1460.94)" fill="url(#paint22_linear)"/>
</g>
</g>
</g>
</g>
<defs>
<linearGradient id="paint7_linear" x1="0" y1="0" x2="1" y2="0" gradientUnits="userSpaceOnUse" gradientTransform="matrix(-3.31551 -17.7727 17.8861 -3.29449 -1.8391 22.9192)">
<stop offset="0.0220994" stop-color="#FFC86E"/>
<stop offset="0.972376" stop-color="#FFDC00"/>
</linearGradient>
<linearGradient id="paint12_linear" x1="0" y1="0" x2="1" y2="0" gradientUnits="userSpaceOnUse" gradientTransform="matrix(-3.25295 -17.6221 17.5486 -3.26658 -1.8044 22.725)">
<stop offset="0.0220994" stop-color="#FFC86E"/>
<stop offset="0.972376" stop-color="#FFDC00"/>
</linearGradient>
<linearGradient id="paint20_linear" x1="0" y1="0" x2="1" y2="0" gradientUnits="userSpaceOnUse" gradientTransform="matrix(-2.66418 -12.0185 14.3724 -2.22785 -1.47782 15.4988)">
<stop offset="0.0220994" stop-color="#FFC86E"/>
<stop offset="0.972376" stop-color="#FFDC00"/>
</linearGradient>
<linearGradient id="paint22_linear" x1="0" y1="0" x2="1" y2="0" gradientUnits="userSpaceOnUse" gradientTransform="matrix(-2.76354 -11.8178 14.9084 -2.19064 -1.53293 15.2399)">
<stop offset="0.0220994" stop-color="#FFC86E"/>
<stop offset="0.972376" stop-color="#FFDC00"/>
</linearGradient>
<path id="path0_fill" d="M 0.061763 1.87291e-07C 0.0741156 1.87291e-07 0.0741152 0.0122743 0.0864678 0.0122743C 0.0988204 0.0245486 0.111173 0.036823 0.111173 0.0613716L 0.111173 0.0245484L 0.061763 1.87291e-07ZM 0.061763 1.87291e-07C 0.0741156 1.87291e-07 0.0741152 0.0122743 0.0864678 0.0122743C 0.0988204 0.0245486 0.111173 0.036823 0.111173 0.0613716L 0.111173 0.0245484L 0.061763 1.87291e-07ZM 1.00056 0.0245484L 0.543514 0.306857L 0.111173 0.0368225L 0.061763 1.87291e-07C 0.0741156 1.87291e-07 0.0741152 0.0122743 0.0864678 0.0122743C 0.0988204 0.0245486 0.111173 0.036823 0.111173 0.0613716L 0.111173 0.17184L 3.51082e-15 0.0981938L 3.51082e-15 0.245486L 0.111173 0.319131L 0.123526 0.319131L 0.481751 0.540069C 0.506456 0.552343 0.518808 0.564617 0.543514 0.564617C 0.568219 0.564617 0.592924 0.564617 0.605277 0.552343L 1.00056 0.319131L 1.00056 0.0736457C 1.01291 0.0490971 1.02527 0.0245487 1.04997 1.87291e-07L 1.00056 0.0245484ZM 0.061763 1.87291e-07C 0.0741156 1.87291e-07 0.0741152 0.0122743 0.0864678 0.0122743C 0.0988204 0.0245486 0.111173 0.036823 0.111173 0.0613716L 0.111173 0.0245484L 0.061763 1.87291e-07ZM 0.061763 1.87291e-07C 0.0741156 1.87291e-07 0.0741152 0.0122743 0.0864678 0.0122743C 0.0988204 0.0245486 0.111173 0.036823 0.111173 0.0613716L 0.111173 0.0245484L 0.061763 1.87291e-07Z"/>
<path id="path1_fill" d="M 5.42279 3.37543L 0.247052 0.147291L 0.123526 0.0736455L -3.76971e-07 -1.74428e-15L 0.0988208 6.54219L 0.0988208 6.64038L 0.222347 6.56674L 0.345873 6.49309L 5.45985 3.41225L 5.42279 3.37543Z"/>
<path id="path2_fill" d="M 5.75631 0.0736458L 5.63278 0.147291L 3.76971e-07 3.55954L 5.63278 7.10681L 5.75631 7.18045L 5.87984 7.2541L 5.87984 3.74581e-07L 5.75631 0.0736458ZM 8.58505 9.10751L 13.3037 6.25988L 8.58505 9.10751ZM 17.3307 3.63319C 17.3307 3.63319 17.3183 3.63319 17.3307 3.63319C 17.3307 3.63319 17.3307 3.64546 17.3307 3.63319C 17.3307 3.64546 17.3307 3.64546 17.3307 3.63319Z"/>
<path id="path3_fill" d="M 0.0109347 -6.10352e-06C -0.00364491 -6.10352e-06 -0.00364491 -6.10352e-06 0.0109347 -6.10352e-06C -0.00364491 -6.10352e-06 -0.00364491 -6.10352e-06 0.0109347 -6.10352e-06C -0.00364491 -6.10352e-06 -0.00364491 -6.10352e-06 0.0109347 -6.10352e-06Z"/>
<path id="path4_fill" d="M 0.123527 -3.74581e-07L 0.123527 0.147291L 7.53943e-07 0.245485L 7.53943e-07 0.0859192L 0.123527 -3.74581e-07Z"/>
<path id="path5_fill" d="M 0.123527 -7.49162e-07L 0.123527 0.159565L 7.53943e-07 0.245485L 7.53943e-07 0.0981938L 0.123527 -7.49162e-07Z"/>
<path id="path6_fill" d="M 0.123527 0L 0.123527 0.147291L 7.53943e-07 0.233211L 7.53943e-07 0.0859196L 0.123527 0Z"/>
<path id="path7_fill" d="M 11.1297 1.87291e-07L 5.74396 20.8172L -1.50789e-06 26.0828L 1.46996 14.4468L 2.69287 5.14574L 7.3745 2.25847L 7.38685 2.24619L 11.1297 1.87291e-07Z"/>
<path id="path8_fill" d="M 0.0245001 0.0121713C 0.0122504 0.0121713 -7.47661e-07 -1.48584e-06 -7.47661e-07 -1.48584e-06C 0.0122489 -1.48584e-06 0.0245001 0.0121713 0.0245001 0.0121713Z"/>
<path id="path9_fill" d="M 17.0219 5.26567L 8.46153 10.4331L 3.76971e-07 5.09383L 5.63278 1.68158L 5.75631 1.60793L 5.87984 1.53429L 8.43682 -9.36453e-08L 17.0219 5.26567Z"/>
<path id="path10_fill" d="M 9.07916 -3.74581e-07L 8.96799 0.0859192L 8.84446 0.171841L 6.55923 1.75522L 6.4357 1.84114L 2.92757 4.28372L 2.81639 4.35737L 2.70522 4.43102L 0.0741156 6.27216L 0.0617622 6.28443C 0.0617622 6.28443 0.0494108 6.28443 0.0494108 6.2967C 0.0494108 6.2967 0.04941 6.29671 0.0370574 6.30898L 0.024706 6.32125L 0.0123526 6.33353C 0.0123526 6.3458 -7.53943e-07 6.3458 -7.53943e-07 6.35808C -7.53943e-07 6.37035 -7.53943e-07 6.38262 -7.53943e-07 6.38262L -7.53943e-07 6.3949C -7.53943e-07 6.43172 0.0247056 6.45627 0.0494108 6.48082L 0.135879 6.54219L 0.271758 6.64039L 0.43234 6.76313L 0.642336 6.92269L 1.46996 7.53641L 6.42335 11.2432L 6.54688 11.3414L 6.54688 11.0346L 0.333521 6.38262L 9.06681 0.294583L 9.06681 -3.74581e-07L 9.07916 -3.74581e-07Z"/>
<path id="path11_fill" d="M 10.9197 25.8619L 5.18809 20.5962L 0 1.87291e-07L 8.15272 5.29021L 8.20213 5.31476L 10.9197 25.8619Z"/>
<path id="path12_fill" d="M 17.2813 15.2937L 12.0067 18.9515L 11.8832 19.0374L 11.7597 19.1233L 11.7226 23.8735C 11.7226 23.9103 11.735 23.9471 11.772 23.9717L 15.4531 26.942L 15.6507 26.7825L 17.1083 25.6532L 18.4918 14.4591L 17.2813 15.2937ZM 11.7597 18.8165L 11.8832 18.7305L 12.0067 18.6446L 18.4301 14.1891L 15.7743 12.262L 15.6754 12.1884L 15.5766 12.1147L 12.0808 9.61076L 11.9573 9.52484L 11.8338 9.43892L 9.93149 8.0642L 9.80796 7.97828L 9.68444 7.89236L 9.68444 1.87291e-07C 9.68444 0.0122745 9.68444 0.0245482 9.68444 0.0368225L 9.68444 16.4966C 9.68444 16.5457 9.70914 16.5826 9.75855 16.6071C 9.7709 16.6194 9.79561 16.6194 9.80796 16.6194C 9.83267 16.6194 9.85737 16.6071 9.88208 16.5948L 11.7844 15.1956L 11.7597 18.8165ZM 8.79505 1.87291e-07L 8.79505 7.81872L 8.68388 7.90463L 8.56035 7.99055L 6.27512 9.58621L 6.15159 9.67213L 2.85345 11.9674L 2.74228 12.0411L 2.6311 12.1147L 0.0617626 13.9068L 1.22291 14.7782L 6.15159 18.4728L 6.27512 18.571L 6.27512 14.7291L 8.60976 16.3984C 8.63447 16.4107 8.65917 16.423 8.68388 16.423C 8.70858 16.423 8.72093 16.423 8.74564 16.4107C 8.7827 16.3862 8.8074 16.3493 8.8074 16.3002L 8.8074 0.0490975C 8.8074 0.0245489 8.8074 0.0122745 8.79505 1.87291e-07ZM 6.15159 18.7796L 1.1982 15.0728L -3.76971e-07 14.1768L 1.18585 26.0337L 2.34699 26.9052L 6.21336 23.9226C 6.25041 23.898 6.26277 23.8612 6.26277 23.8244L 6.26277 18.8778L 6.15159 18.7796Z"/>
<path id="path13_fill" d="M 40.9736 12.6364C 40.9736 12.6364 40.9736 12.6241 40.9612 12.6118C 40.9612 12.6118 40.9612 12.6118 40.9612 12.5995L 40.9489 12.5873C 40.9489 12.5873 40.9489 12.575 40.9365 12.575C 40.9242 12.575 40.9242 12.5627 40.9118 12.5627L 40.8995 12.5627L 32.0797 7.14977C 32.0426 7.12522 31.9932 7.12522 31.9438 7.14977L 29.4609 8.6595L 29.4609 5.57866C 29.4609 5.56638 29.4609 5.56638 29.4609 5.55411L 29.4609 5.54184C 29.4609 5.54184 29.4609 5.52956 29.4486 5.52956L 29.4362 5.51729L 29.4239 5.50501L 29.4115 5.49274C 29.4115 5.49274 29.4115 5.49274 29.3992 5.49274L 20.7524 0.0184114C 20.7153 -0.00613714 20.6659 -0.00613714 20.6165 0.0184114L 11.7844 5.37C 11.7473 5.39455 11.7226 5.43137 11.7226 5.48046L 11.7226 5.49274L 11.7226 5.50501L 11.7844 9.04L 8.85681 7.19886C 8.81975 7.17431 8.77034 7.17431 8.72093 7.19886L 0.0741159 12.4277C 0.0741159 12.4277 0.061763 12.4277 0.061763 12.44C 0.0494104 12.44 0.0494103 12.4523 0.0370577 12.4523L 0.0247053 12.4645C 0.0247053 12.4645 0.0247055 12.4645 0.0123529 12.4768C 0.0123529 12.4768 0.0123529 12.4768 0.0123529 12.4891C 0.0123529 12.4891 0.0123526 12.5014 0 12.5136C 0 12.5382 0 12.5504 0 12.575L 5.27456 33.5026C 5.27456 33.5272 5.28691 33.5517 5.31162 33.564L 11.315 39.0629L 11.3273 39.0752C 11.3273 39.0752 11.3397 39.0752 11.3397 39.0874C 11.352 39.0997 11.352 39.0997 11.3644 39.0997C 11.3767 39.112 11.4014 39.112 11.4138 39.112C 11.4262 39.112 11.4385 39.112 11.4385 39.112L 11.4509 39.112C 11.4632 39.112 11.4632 39.112 11.4632 39.0997C 11.4632 39.0997 11.4756 39.0997 11.4756 39.0874L 13.489 37.5286L 13.5879 37.455L 13.6867 37.3813L 12.5255 36.5098L 11.4014 24.6434L 12.5379 25.5489L 17.4913 29.2557L 17.6148 29.3539L 20.2953 31.3669L 20.3571 31.4037C 20.3818 31.416 20.4065 31.4283 20.4188 31.4283C 20.4435 31.4283 20.4683 31.416 20.493 31.4037L 20.5424 31.3669L 23.0994 29.5994L 23.2229 29.5135L 23.3464 29.4276L 28.621 25.7698L 29.8192 24.9352L 28.4357 36.1293L 26.9781 37.2586L 26.7804 37.4181L 26.9781 37.5777L 29.2633 39.4311C 29.2633 39.4311 29.2757 39.4311 29.2757 39.4434C 29.288 39.4434 29.288 39.4557 29.3004 39.4557C 29.3004 39.4557 29.3004 39.4557 29.3127 39.4557C 29.3251 39.4557 29.3374 39.4557 29.3498 39.4557C 29.3621 39.4557 29.3868 39.4557 29.3992 39.4434L 29.4115 39.4434C 29.4239 39.4434 29.4239 39.4311 29.4362 39.4311L 35.452 33.9077C 35.4643 33.8954 35.4767 33.8709 35.489 33.8463L 40.9736 12.71C 40.9736 12.6977 40.9736 12.6855 40.9736 12.6855C 40.9736 12.6609 40.9736 12.6486 40.9736 12.6364ZM 5.52161 33.4044L 0.33352 12.8082L 8.48623 18.0984L 11.2656 38.6701L 5.52161 33.4044ZM 32.0303 7.39525L 40.6153 12.6732L 32.055 17.8284L 23.5935 12.5014L 29.2262 9.07683L 32.0303 7.39525ZM 11.9079 9.39596L 12.0314 9.4696L 17.2072 12.6977L 12.1303 15.7049L 12.0067 15.7786L 11.8832 15.8522L 11.7844 9.32231L 11.9079 9.39596ZM 23.3588 29.133L 23.2352 29.2189L 23.1117 29.3048L 20.4435 31.1583L 12.5749 25.2543L 11.4138 24.3829L 13.9831 22.5908L 14.0943 22.5172L 14.2055 22.4435L 17.5036 20.1482L 17.6272 20.0623L 19.9124 18.4667L 20.0359 18.3807L 20.1471 18.2948L 20.1471 10.4761C 20.1471 10.4638 20.1347 10.4393 20.1224 10.427C 20.11 10.427 20.11 10.4147 20.0977 10.4147L 12.0808 5.46819L 20.6782 0.263897L 29.1151 5.56638L 21.0859 10.4024C 21.0612 10.4147 21.0365 10.4393 21.0365 10.4761L 21.0365 18.3685L 21.16 18.4544L 21.2835 18.5403L 23.1858 19.915L 23.3094 20.0009L 23.4329 20.0869L 26.9163 22.6031L 27.0151 22.6767L 27.1139 22.7504L 29.7698 24.6774L 23.3588 29.133ZM 35.2667 33.7481L 29.5227 39.0138L 30.9927 27.3778L 32.2156 18.0767L 36.8849 15.1894L 36.9096 15.1771L 40.6524 12.9187L 35.2667 33.7481Z"/>
<path id="path14_fill" d="M 17.7013 5.29021L 9.67209 10.1263C 9.64738 10.1386 9.62268 10.1631 9.62268 10.1999L 9.62268 10.3104L 8.74564 10.3227L 8.73329 10.3227L 8.73329 10.2122C 8.73329 10.1999 8.72093 10.1754 8.70858 10.1631C 8.69623 10.1631 8.69623 10.1508 8.68388 10.1508L 0.667042 5.20429L 9.26445 0L 17.7013 5.29021Z"/>
<path id="path15_fill" d="M 9.02975 30.8698L 9.0174 30.8821L 1.16115 24.9782L 6.08983 28.6727L 6.21336 28.7586L 9.02975 30.8698Z"/>
<path id="path16_fill" d="M 18.3683 24.5117L 11.945 28.8814L 11.8214 28.9673L 11.6979 29.0532L 9.02975 30.8698L 6.21336 28.7954L 6.08983 28.7095L 1.16115 25.0641L 0 24.2171L 2.58169 22.4496L 2.68051 22.376L 2.79169 22.3024L 6.08983 20.0439L 6.21336 19.958L 8.49859 18.3991L 8.62211 18.3132L 8.73329 18.2273L 8.73329 10.1263L 9.62267 10.1263L 9.62267 18.2887L 9.7462 18.3746L 9.86973 18.4605L 11.772 19.8107L 11.8956 19.8966L 12.0191 19.9825L 15.4902 22.4619L 15.6013 22.5356L 15.7002 22.6092L 18.3683 24.5117Z"/>
<path id="path17_fill" d="M 16.886 5.29021L 11.772 8.37106L 11.6485 8.43243L 11.525 8.51835L 8.27624 10.47L -9.42428e-08 5.09382L 8.42447 9.36453e-08L 11.4138 1.87796L 11.5373 1.95161L 11.6732 2.02526L 16.8366 5.25339L 16.886 5.29021Z"/>
<path id="path18_fill" d="M 0 1.87291e-07L 8.15271 5.29021L 0 1.87291e-07Z"/>
<path id="path19_fill" d="M 8.94328 6.71403L 8.94328 17.6381L 2.34699 12.7162L 1.18585 11.8447L 3.76971e-07 -7.49162e-07L 1.18585 0.896022L 6.26277 4.70105L 8.94328 6.71403Z"/>
<path id="path20_fill" d="M 8.00448 17.6013L 8.00448 6.68948L 7.95507 6.7263C 7.93037 6.73858 7.90566 6.75085 7.88096 6.75085C 7.85625 6.75085 7.83155 6.73858 7.81919 6.7263L 7.75743 6.68948L 5.07692 4.66423L 4.95339 4.56603L -7.53943e-07 0.8592L 5.07692 4.66423L 7.75743 6.67721L 7.75743 17.6013L 1.16114 12.6793L 1.06232 12.753L 0.963502 12.8266L 7.79449 17.9327C 7.80684 17.945 7.81919 17.945 7.81919 17.9573C 7.83155 17.9695 7.85625 17.9695 7.86861 17.9695C 7.88096 17.9695 7.88096 17.9695 7.89331 17.9695L 7.90566 17.9695C 7.91801 17.9695 7.93037 17.9573 7.94272 17.945L 7.95507 17.945L 14.4278 12.9003L 14.2302 12.7407L 8.00448 17.6013ZM 10.5615 4.6274L 10.685 4.54148L 10.8085 4.45556L 17.2319 7.49162e-07L 10.8085 4.44329L 10.685 4.52921L 10.5615 4.6274L 7.89331 6.46854L 10.5615 4.6274Z"/>
<path id="path21_fill" d="M 9.2768 -3.74581e-07L 7.89331 11.1941L 6.44806 12.3234L 6.25041 12.4829L -3.76971e-07 17.3436L -3.76971e-07 6.43172L 2.55699 4.66423L 2.68051 4.57831L 2.80404 4.49239L 8.0786 0.834651L 9.2768 -3.74581e-07Z"/>
</defs>
</svg>
