<svg width="88" height="15" viewBox="0 0 88 15" version="1.1" xmlns="http://www.w3.org/2000/svg" xmlns:xlink="http://www.w3.org/1999/xlink">
<title>Vector</title>
<desc>Created using Figma</desc>
<g id="Canvas" transform="translate(-1514 -1450)">
<g id="Vector">
<use xlink:href="#path0_fill" transform="translate(1514.11 1450.31)" fill="#FFDC00"/>
<use xlink:href="#path1_fill" transform="translate(1514.11 1450.31)" fill="#FFDC00"/>
<use xlink:href="#path2_fill" transform="translate(1514.11 1450.31)" fill="#FFDC00"/>
<use xlink:href="#path3_fill" transform="translate(1514.11 1450.31)" fill="#FFDC00"/>
</g>
</g>
<defs>
<path id="path0_fill" d="M 0 13.7966L 0 0L 20.115 0L 20.115 13.7966L 16.7558 13.7966L 16.7558 3.49828L 3.53801 3.49828L 3.53801 13.7966L 0 13.7966Z"/>
<path id="path1_fill" d="M 26.2568 2.75146L 43.0126 2.71215L 43.0126 0L 24.5673 0C 24.5673 0 22.8977 0.176878 22.8977 1.8474C 22.8977 3.51793 22.8977 6.81968 22.8977 6.81968C 22.8977 6.81968 22.8977 10.318 22.8977 11.9688C 22.8977 13.6197 24.5673 13.8162 24.5673 13.8162L 43.0126 13.8162L 43.0126 10.4948L 26.2568 10.4948L 26.2568 6.81968L 26.2568 2.75146Z"/>
<path id="path2_fill" d="M 48.9756 2.75146L 65.7314 2.6925L 65.7314 0L 47.306 0C 47.306 0 45.6363 0.176878 45.6363 1.8474C 45.6363 3.51793 45.6363 6.81968 45.6363 6.81968C 45.6363 6.81968 45.6363 10.318 45.6363 11.9688C 45.6363 13.6197 47.306 13.8162 47.306 13.8162L 65.7513 13.8162L 65.7513 10.4948L 48.9955 10.4948L 48.9955 6.81968L 48.9955 2.75146L 48.9756 2.75146Z"/>
<path id="path3_fill" d="M 72.8074 4.42198L 79.8835 0L 86.7806 0L 75.61 6.44626L 87.8937 13.7966L 80.8177 13.7966L 72.072 8.64743L 71.1378 8.64743L 71.1378 13.7966L 67.5998 13.7966L 67.5998 0L 71.3167 0L 71.3167 4.42198L 72.8074 4.42198Z"/>
</defs>
</svg>
