<svg width="40" height="40" viewBox="0 0 40 40" version="1.1" xmlns="http://www.w3.org/2000/svg" xmlns:xlink="http://www.w3.org/1999/xlink">
<title>Group</title>
<desc>Created using Figma</desc>
<g id="Canvas" transform="translate(-1458 136)">
<g id="Group" opacity="0.7">
<g id="Rectangle 5">
<mask id="mask0_outline_ins">
<use xlink:href="#path0_fill" fill="white" transform="translate(1458 -136)"/>
</mask>
<g mask="url(#mask0_outline_ins)">
<use xlink:href="#path1_stroke_2x" transform="translate(1458 -136)" fill="#FFFFFF"/>
</g>
</g>
<g id="Vector 2">
<use xlink:href="#path2_stroke" transform="matrix(6.12323e-17 1 -1 6.12323e-17 1483 -124)" fill="#FFFFFF"/>
</g>
</g>
</g>
<defs>
<path id="path0_fill" d="M 0 1C 0 0.447715 0.447715 0 1 0L 39 0C 39.5523 0 40 0.447715 40 1L 40 39C 40 39.5523 39.5523 40 39 40L 1 40C 0.447715 40 0 39.5523 0 39L 0 1Z"/>
<path id="path1_stroke_2x" d="M 1 2L 39 2L 39 -2L 1 -2L 1 2ZM 38 1L 38 39L 42 39L 42 1L 38 1ZM 39 38L 1 38L 1 42L 39 42L 39 38ZM 2 39L 2 1L -2 1L -2 39L 2 39ZM 1 -2C -0.656854 -2 -2 -0.656854 -2 1L 2 1C 2 1.55228 1.55228 2 1 2L 1 -2ZM 39 2C 38.4477 2 38 1.55228 38 1L 42 1C 42 -0.656854 40.6569 -2 39 -2L 39 2ZM 38 39C 38 38.4477 38.4477 38 39 38L 39 42C 40.6569 42 42 40.6569 42 39L 38 39ZM 1 38C 1.55228 38 2 38.4477 2 39L -2 39C -2 40.6569 -0.656854 42 1 42L 1 38Z"/>
<path id="path2_stroke" d="M 0.768221 -0.640184C 0.414657 -1.06446 -0.215907 -1.12179 -0.640184 -0.768221C -1.06446 -0.414657 -1.12179 0.215907 -0.768221 0.640184L 0.768221 -0.640184ZM 8.33333 10L 7.56511 10.6402C 7.75511 10.8682 8.03655 11 8.33333 11C 8.63011 11 8.91156 10.8682 9.10155 10.6402L 8.33333 10ZM 17.4349 0.640184C 17.7885 0.215907 17.7311 -0.414657 17.3069 -0.768221C 16.8826 -1.12179 16.252 -1.06446 15.8984 -0.640184L 17.4349 0.640184ZM -0.768221 0.640184L 7.56511 10.6402L 9.10155 9.35982L 0.768221 -0.640184L -0.768221 0.640184ZM 9.10155 10.6402L 17.4349 0.640184L 15.8984 -0.640184L 7.56511 9.35982L 9.10155 10.6402Z"/>
</defs>
</svg>
