<svg width="214" height="37" viewBox="0 0 214 37" version="1.1" xmlns="http://www.w3.org/2000/svg" xmlns:xlink="http://www.w3.org/1999/xlink">
<title>Group</title>
<desc>Created using Figma</desc>
<g id="Canvas" transform="translate(-3868 -2125)">
<g id="Group">
<g id="We can">
<use xlink:href="#path0_fill" transform="translate(3868 2125.36)" fill="#FFDC00"/>
<use xlink:href="#path1_fill" transform="translate(3868 2125.36)" fill="#FFDC00"/>
<use xlink:href="#path2_fill" transform="translate(3868 2125.36)" fill="#FFDC00"/>
<use xlink:href="#path3_fill" transform="translate(3868 2125.36)" fill="#FFDC00"/>
<use xlink:href="#path4_fill" transform="translate(3868 2125.36)" fill="#FFDC00"/>
</g>
<g id="make it">
<use xlink:href="#path5_fill" transform="translate(3987.74 2125.97)" fill="#FFDC00"/>
<use xlink:href="#path6_fill" transform="translate(3987.74 2125.97)" fill="#FFDC00"/>
<use xlink:href="#path7_fill" transform="translate(3987.74 2125.97)" fill="#FFDC00"/>
<use xlink:href="#path8_fill" transform="translate(3987.74 2125.97)" fill="#FFDC00"/>
<use xlink:href="#path9_fill" transform="translate(3987.74 2125.97)" fill="#FFDC00"/>
<use xlink:href="#path10_fill" transform="translate(3987.74 2125.97)" fill="#FFDC00"/>
</g>
<g id="possible">
<use xlink:href="#path11_fill" transform="translate(3987.74 2150.05)" fill="#FFDC00"/>
<use xlink:href="#path12_fill" transform="translate(3987.74 2150.05)" fill="#FFDC00"/>
<use xlink:href="#path13_fill" transform="translate(3987.74 2150.05)" fill="#FFDC00"/>
<use xlink:href="#path14_fill" transform="translate(3987.74 2150.05)" fill="#FFDC00"/>
<use xlink:href="#path15_fill" transform="translate(3987.74 2150.05)" fill="#FFDC00"/>
<use xlink:href="#path16_fill" transform="translate(3987.74 2150.05)" fill="#FFDC00"/>
<use xlink:href="#path17_fill" transform="translate(3987.74 2150.05)" fill="#FFDC00"/>
<use xlink:href="#path18_fill" transform="translate(3987.74 2150.05)" fill="#FFDC00"/>
</g>
</g>
</g>
<defs>
<path id="path0_fill" d="M 0 0.779009L 5.38304 35.4449L 9.07672 35.4449L 13.2858 8.81254L 17.409 35.4449L 21.0454 35.4449L 26.6861 0.779009L 23.0497 0.779009L 19.2129 27.168L 15.1756 0.779009L 11.5392 0.779009L 7.35873 27.168L 3.63642 0.779009L 0 0.779009Z"/>
<path id="path1_fill" d="M 43.618 0.779009L 28.9292 0.779009L 28.9292 35.4449L 43.7898 35.4449L 43.7898 30.2353L 32.4797 30.2353L 32.4797 20.0108L 42.8163 20.0108L 42.8163 15.0933L 32.4797 15.0933L 32.4797 5.89126L 43.618 5.89126L 43.618 0.779009Z"/>
<path id="path2_fill" d="M 72.4288 22.2505L 68.8496 22.2505C 68.4774 27.3627 66.9599 31.1117 63.6384 31.1117C 59.2862 31.1117 57.6254 24.5388 57.6254 18.112C 57.6254 11.7338 59.3721 5.16094 63.667 5.16094C 66.3013 5.16094 68.2197 7.64403 68.7065 11.8312L 72.257 11.8312C 71.5698 3.79767 67.7902 0 63.7243 0C 57.5395 0 54.0177 8.27697 54.0177 18.112C 54.0177 29.0668 57.7972 36.2726 63.5525 36.2726C 68.6492 36.2726 72.0566 30.6735 72.4288 22.2505Z"/>
<path id="path3_fill" d="M 84.9323 0.730321L 81.1241 0.730321L 73.25 35.4449L 76.9437 35.4449L 78.948 26.2429L 87.0226 26.2429L 88.9696 35.4449L 92.8065 35.4449L 84.9323 0.730321ZM 86.0777 21.6662L 79.8643 21.6662L 83.0425 7.05977L 86.0777 21.6662Z"/>
<path id="path4_fill" d="M 111.246 0.779009L 107.81 0.779009L 107.81 26.3403L 98.4184 0.779009L 94.6674 0.779009L 94.6674 35.4449L 98.0461 35.4449L 98.0461 9.93237L 107.552 35.4449L 111.246 35.4449L 111.246 0.779009Z"/>
<path id="path5_fill" d="M 17.7141 0.0282066L 13.5489 0.0282066L 8.9528 15.7393L 4.18914 0.0282066L 0 0.0282066L 0 20.1113L 2.82468 20.1113L 2.82468 4.62588L 7.68408 20.1113L 10.1258 20.1113L 14.8655 4.62588L 14.8655 20.1113L 17.7141 20.1113L 17.7141 0.0282066Z"/>
<path id="path6_fill" d="M 29.0528 0L 25.8691 0L 19.2861 20.1113L 22.3741 20.1113L 24.0498 14.7802L 30.8003 14.7802L 32.4281 20.1113L 35.6358 20.1113L 29.0528 0ZM 30.0104 12.1288L 24.8158 12.1288L 27.4729 3.66686L 30.0104 12.1288Z"/>
<path id="path7_fill" d="M 51.5065 0.0282066L 47.7243 0.0282066L 40.1838 9.13893L 40.1838 0.0282066L 37.2155 0.0282066L 37.2155 20.1113L 40.1838 20.1113L 40.1838 13.3699L 42.6255 10.4928L 48.227 20.1113L 51.9373 20.1113L 44.6841 8.03888L 51.5065 0.0282066Z"/>
<path id="path8_fill" d="M 65.8829 0.0282066L 53.6027 0.0282066L 53.6027 20.1113L 66.0265 20.1113L 66.0265 17.0932L 56.571 17.0932L 56.571 11.1698L 65.2126 11.1698L 65.2126 8.32094L 56.571 8.32094L 56.571 2.9899L 65.8829 2.9899L 65.8829 0.0282066Z"/>
<path id="path9_fill" d="M 78.4073 0.0282066L 75.3911 0.0282066L 75.3911 20.1113L 78.4073 20.1113L 78.4073 0.0282066Z"/>
<path id="path10_fill" d="M 94.2619 0.0282066L 80.4018 0.0282066L 80.4018 3.07452L 85.8357 3.07452L 85.8357 20.1113L 88.828 20.1113L 88.828 3.07452L 94.2619 3.07452L 94.2619 0.0282066Z"/>
<path id="path11_fill" d="M 0 0.250315L 0 10.7341L 2.45664 10.7341L 2.45664 6.69962L 6.40693 6.69962C 9.23698 6.69962 10.9468 5.43332 10.9468 3.44552C 10.9468 1.25158 8.96184 0.250315 6.07283 0.250315L 0 0.250315ZM 2.45664 1.78166L 5.66011 1.78166C 7.21271 1.78166 8.54913 2.13504 8.54913 3.48969C 8.54913 4.72654 7.4682 5.21245 5.8763 5.21245L 2.45664 5.21245L 2.45664 1.78166Z"/>
<path id="path12_fill" d="M 19.1027 0C 14.8183 0 12.342 2.41481 12.342 5.49221C 12.342 8.76104 15.0542 10.9844 19.0634 10.9844C 23.053 10.9844 25.7848 8.76104 25.7848 5.49221C 25.7848 2.23811 23.053 0 19.1027 0ZM 19.0634 1.54607C 21.6576 1.54607 23.3085 3.07741 23.3085 5.47749C 23.3085 7.87757 21.6576 9.43836 19.1027 9.43836C 16.4692 9.43836 14.8183 7.90702 14.8183 5.46277C 14.8183 3.09213 16.4888 1.54607 19.0634 1.54607Z"/>
<path id="path13_fill" d="M 38.0634 3.34245C 37.9455 1.00126 35.6854 0.0441733 32.8357 0.0441733C 29.6912 0.0441733 27.6669 1.23685 27.6669 3.10686C 27.6669 5.2419 29.9663 5.61001 32.9339 6.18426C 34.9975 6.58182 36.1964 6.77324 36.1964 7.86285C 36.1964 8.89356 35.0761 9.51199 33.1894 9.51199C 31.2045 9.51199 29.5732 8.87883 29.5732 7.25915L 27.1559 7.25915C 27.1559 9.79175 29.7305 10.9697 33.0519 10.9697C 35.8033 10.9697 38.6137 10.0568 38.6137 7.68615C 38.6137 5.43332 35.9409 5.00631 33.5628 4.54985C 30.8703 4.01977 30.0056 3.96087 30.0056 2.95961C 30.0056 2.0467 31.0079 1.50189 32.6784 1.50189C 34.4079 1.50189 35.5675 2.03197 35.7247 3.34245L 38.0634 3.34245Z"/>
<path id="path14_fill" d="M 50.8072 3.34245C 50.6893 1.00126 48.4292 0.0441733 45.5795 0.0441733C 42.435 0.0441733 40.4107 1.23685 40.4107 3.10686C 40.4107 5.2419 42.7101 5.61001 45.6778 6.18426C 47.7414 6.58182 48.9402 6.77324 48.9402 7.86285C 48.9402 8.89356 47.82 9.51199 45.9333 9.51199C 43.9483 9.51199 42.3171 8.87883 42.3171 7.25915L 39.8997 7.25915C 39.8997 9.79175 42.4743 10.9697 45.7957 10.9697C 48.5471 10.9697 51.3575 10.0568 51.3575 7.68615C 51.3575 5.43332 48.6847 5.00631 46.3067 4.54985C 43.6142 4.01977 42.7495 3.96087 42.7495 2.95961C 42.7495 2.0467 43.7518 1.50189 45.4223 1.50189C 47.1518 1.50189 48.3113 2.03197 48.4685 3.34245L 50.8072 3.34245Z"/>
<path id="path15_fill" d="M 55.9846 0.250315L 53.5083 0.250315L 53.5083 10.7341L 55.9846 10.7341L 55.9846 0.250315Z"/>
<path id="path16_fill" d="M 58.9389 0.250315L 58.9389 10.7341L 66.073 10.7341C 68.6869 10.7341 70.4949 9.49726 70.4949 7.64198C 70.4949 6.28733 69.4533 5.38914 67.8614 5.09465C 69.0406 4.74127 69.8661 3.90198 69.8661 2.88599C 69.8661 1.3252 68.3528 0.250315 65.3262 0.250315L 58.9389 0.250315ZM 61.3366 1.73748L 64.7562 1.73748C 66.1516 1.73748 67.4291 1.87 67.4291 3.18048C 67.4291 4.24064 66.5054 4.62347 64.6776 4.62347L 61.3366 4.62347L 61.3366 1.73748ZM 61.3366 5.94867L 64.9724 5.94867C 66.5643 5.94867 68.0383 6.15481 68.0383 7.59781C 68.0383 8.93773 66.6626 9.23222 65.0117 9.23222L 61.3366 9.23222L 61.3366 5.94867Z"/>
<path id="path17_fill" d="M 82.3675 9.14388L 75.253 9.14388L 75.253 0.250315L 72.7767 0.250315L 72.7767 10.7341L 82.3675 10.7341L 82.3675 9.14388Z"/>
<path id="path18_fill" d="M 94.144 0.250315L 84.0619 0.250315L 84.0619 10.7341L 94.2619 10.7341L 94.2619 9.1586L 86.4989 9.1586L 86.4989 6.06647L 93.5937 6.06647L 93.5937 4.5793L 86.4989 4.5793L 86.4989 1.79638L 94.144 1.79638L 94.144 0.250315Z"/>
</defs>
</svg>
