<svg width="101" height="55" viewBox="0 0 101 55" version="1.1" xmlns="http://www.w3.org/2000/svg" xmlns:xlink="http://www.w3.org/1999/xlink">
<title>Unit Space</title>
<desc>Created using Figma</desc>
<g id="Canvas" transform="translate(-2436 -1883)">
<g id="Unit Space">
<use xlink:href="#path0_fill" transform="translate(2436.81 1883.78)" fill="#FFDC00"/>
</g>
</g>
<defs>
<path id="path0_fill" fill-rule="evenodd" d="M 98.7802 34.9297L 94.1228 34.9297C 93.3456 34.9297 92.7155 34.336 92.7155 33.6035C 92.7155 32.8709 93.3456 32.2772 94.1228 32.2772L 98.7802 32.2772C 99.5574 32.2772 100.188 32.8709 100.188 33.6035C 100.188 34.336 99.5574 34.9297 98.7802 34.9297ZM 98.7318 2.74776L 94.8991 2.74776C 94.095 2.74776 93.4433 2.13353 93.4433 1.37582C 93.4433 0.618112 94.095 0.00388285 94.8991 0.00388285L 98.7318 0.00388285C 99.5358 0.00388285 100.188 0.618112 100.188 1.37582C 100.188 2.13353 99.5358 2.74776 98.7318 2.74776ZM 90.0484 2.74776L 86.891 2.74776L 86.891 26.1894C 86.891 27.1008 86.107 27.8398 85.1398 27.8398C 84.1726 27.8398 83.3885 27.1008 83.3885 26.1894L 83.3885 2.74776L 73.422 2.74776C 72.722 2.74776 72.079 2.30604 71.9415 1.65946C 71.7539 0.777679 72.4646 0.00388285 73.3671 0.00388285L 90.1239 0.00388285C 90.9711 0.00388285 91.6491 0.6856 91.574 1.49859C 91.5076 2.21932 90.8162 2.74776 90.0484 2.74776ZM 79.9835 34.0248C 80.6015 34.4751 80.714 35.2958 80.2644 35.8783C 79.7868 36.4607 78.8877 36.5666 78.2977 36.143C 76.8084 35.0575 75.0384 34.5013 73.1279 34.5013C 71.9478 34.5013 70.7957 34.7132 69.6999 35.137C 68.6604 35.5604 67.7051 36.143 66.8903 36.9109C 66.1035 37.6523 65.4573 38.5262 65.0077 39.5058C 64.5583 40.4855 64.3334 41.5446 64.3334 42.6302C 64.3334 43.7159 64.5583 44.7485 65.0077 45.7547C 65.4573 46.7343 66.0755 47.6081 66.8903 48.3496C 68.548 49.9118 70.7396 50.7856 73.0716 50.7856C 74.1114 50.7856 75.0946 50.6002 76.0498 50.2825C 76.9772 49.9647 77.8201 49.4882 78.5787 48.9056C 79.1686 48.4289 80.0398 48.5084 80.5454 49.0644C 81.0512 49.6204 80.9668 50.4678 80.3768 50.9178C 79.3653 51.7123 78.2415 52.3214 77.0333 52.745C 75.7689 53.195 74.4202 53.4333 73.0716 53.4333C 71.4982 53.4333 69.9809 53.1421 68.548 52.5595C 67.1993 52.0035 65.9631 51.2357 64.8953 50.2295C 63.8278 49.2499 63.0129 48.0848 62.4228 46.7874C 61.8048 45.4633 61.5238 44.0602 61.5238 42.6302C 61.5238 41.1739 61.8328 39.7705 62.4228 38.4467C 63.0129 37.1757 63.8558 36.0106 64.9236 35.0311C 65.9911 34.0248 67.2556 33.257 68.6323 32.701C 70.0652 32.1448 71.5825 31.8536 73.1279 31.8536C 75.6565 31.8536 78.0166 32.595 79.9835 34.0248ZM 64.3664 27.9391C 63.3992 27.9391 62.6153 27.2005 62.6153 26.2889L 62.6153 1.75338C 62.6153 0.842023 63.3992 0.103173 64.3664 0.103173C 65.3334 0.103173 66.1174 0.842023 66.1174 1.75338L 66.1174 26.2889C 66.1174 27.2005 65.3334 27.9391 64.3664 27.9391ZM 58.4897 52.9038C 57.7872 53.2481 56.9443 52.9567 56.6071 52.3214L 54.4732 48.1702C 54.4367 48.0991 54.3692 48.0454 54.2885 48.0245C 52.8648 47.6583 51.3612 47.6167 49.7515 47.8994C 48.2062 48.1641 46.6045 48.6939 44.947 49.5144C 42.0811 50.9444 40.0861 52.6919 40.0579 52.7185C 39.8052 52.9567 39.4399 53.0891 39.1027 53.0891C 38.8217 53.0891 38.5127 53.0097 38.2598 52.8245C 37.7259 52.4536 37.5293 51.7652 37.8385 51.1828L 47.1947 33.0186C 47.4476 32.5684 47.9252 32.2772 48.4589 32.2772C 48.9928 32.2772 49.4986 32.5684 49.7233 33.0186L 59.1358 51.1561C 59.473 51.7916 59.192 52.5861 58.4897 52.9038ZM 52.6505 44.6958L 48.7191 37.1209C 48.6136 36.9176 48.3056 36.9181 48.2009 37.1219L 43.1987 46.8551C 43.0779 47.0899 43.3422 47.3319 43.5898 47.2149C 43.5926 47.2136 43.5953 47.2123 43.5983 47.211C 45.4807 46.2577 47.3913 45.6222 49.2177 45.3045C 50.3082 45.1218 51.3569 45.0377 52.3819 45.086C 52.5992 45.0961 52.746 44.88 52.6505 44.6958ZM 54.8498 27.8398C 53.952 27.8398 53.1056 27.4453 52.5609 26.7728L 35.5574 5.78766C 35.3861 5.57614 35.0275 5.69041 35.0275 5.95647L 35.0275 26.1896C 35.0275 27.101 34.2436 27.8398 33.2764 27.8398C 32.3095 27.8398 31.525 27.101 31.525 26.1896L 31.525 2.2123C 31.525 0.99253 32.5743 0.00388285 33.8686 0.00388285C 34.5989 0.00388285 35.2877 0.324865 35.731 0.871977L 52.8954 22.0559C 53.0668 22.2674 53.4254 22.1531 53.4254 21.8871L 53.4254 1.65391C 53.4254 0.69392 54.2955 -0.0746986 55.3331 0.0103543C 56.2532 0.0856075 56.9275 0.869388 56.9275 1.73952L 56.9275 25.8818C 56.9275 26.963 55.9972 27.8398 54.8498 27.8398ZM 34.2703 34.1308C 34.8885 34.7132 35.3943 35.4282 35.7316 36.249C 36.0968 37.1492 36.2933 38.1819 36.2933 39.3205C 36.2933 41.8358 35.1694 43.7423 33.0621 44.8809C 31.545 45.7017 29.522 46.0988 27.0214 46.0988C 26.2628 46.0988 25.6166 45.5164 25.6166 44.775C 25.6166 44.0335 26.2628 43.4511 27.0214 43.4511C 29.0164 43.4511 30.5898 43.1597 31.6573 42.5773C 32.8937 41.9153 33.4837 40.8827 33.4837 39.3205C 33.4837 38.2612 33.259 37.3876 32.8657 36.7256C 32.5565 36.1959 32.1069 35.7987 31.573 35.5075C 30.5615 34.9515 29.522 34.9251 29.4377 34.9251L 22.786 34.9251C 22.6268 34.9251 22.4978 35.0468 22.4978 35.1967L 22.4978 52.2315C 22.4978 52.2935 22.476 52.3554 22.4351 52.4037C 21.3138 53.7173 19.6882 52.9411 19.6882 51.7652L 19.6882 33.6011C 19.6882 32.8598 20.3344 32.2772 21.093 32.2772L 29.4377 32.2772C 29.55 32.2772 30.2245 32.2772 31.0954 32.4891C 32.3318 32.7803 33.4274 33.3627 34.2703 34.1308ZM 12.912 28.0386C 5.14787 28.0386 0 23.3063 0 15.7113L 0 1.63412C 0 0.896938 0.519375 0.274758 1.23187 0.0730345C 1.37931 0.0264403 1.53636 0 1.70047 0L 6.59031 0C 7.40241 0 8.0608 0.620886 8.0608 1.38673L 8.0608 1.87116C 8.0608 2.63701 7.40241 3.25789 6.59031 3.25789L 3.49896 3.25789L 3.5023 3.26437L 3.5023 15.7113C 3.5023 21.4374 7.34203 24.9917 12.912 24.9917C 18.5661 24.9917 22.3643 21.4374 22.3643 15.7113L 22.3643 6.23863C 22.3496 6.16023 22.3406 6.07998 22.3406 5.99771L 22.3406 1.38673C 22.3406 0.620886 22.9989 0 23.811 0L 24.3249 0C 25.1151 0 25.7578 0.588159 25.7921 1.32535C 25.8125 1.42537 25.824 1.52836 25.824 1.63412L 25.824 15.7113C 25.824 23.3063 20.6762 28.0386 12.912 28.0386ZM 2.71843 49.0908C 2.7747 49.1439 3.05566 49.5144 3.7862 49.8853C 5.191 50.6002 7.01734 50.759 8.28176 50.759C 10.1361 50.759 11.5409 50.3885 12.3277 49.6999C 12.9457 49.1704 13.0863 48.5084 13.0863 48.0582C 13.0863 47.0786 12.7771 46.3372 12.1029 45.7281C 11.2319 44.9073 9.7146 44.2985 7.57926 43.9011C 6.03388 43.5835 4.68515 43.0804 3.61758 42.3918C 2.71843 41.8094 2.01613 41.0944 1.51028 40.2472C 0.69544 38.9233 0.69544 37.7319 0.69544 37.414C 0.69544 36.0106 1.39794 34.6073 2.60609 33.6011C 3.19605 33.0981 3.92678 32.701 4.74143 32.4096C 5.58431 32.1184 6.51169 31.986 7.46692 31.986C 12.9457 31.986 14.5474 34.4218 14.716 34.7132C 15.0813 35.3487 14.8564 36.1697 14.1821 36.5137C 13.5077 36.8578 12.6648 36.6461 12.2995 36.0371C 12.2603 36.0001 12.1244 35.8463 11.8346 35.6392C 11.5064 35.4704 11.1847 35.3049 10.8565 35.1361C 10.1367 34.8776 9.0519 34.6339 7.46692 34.6339C 5.92154 34.6339 4.99435 35.137 4.46046 35.587C 3.87051 36.0901 3.50524 36.7785 3.50524 37.4671L 3.50524 37.52C 3.50524 37.6259 3.50524 38.2878 4.01089 39.0555C 4.32008 39.5322 4.74142 39.9294 5.30335 40.2736C 6.03388 40.7239 6.9893 41.068 8.14118 41.3063C 10.8384 41.8094 12.7771 42.6302 14.0698 43.8216C 15.2777 44.9338 15.8959 46.3636 15.8959 48.0582C 15.8959 49.4351 15.306 50.7061 14.2382 51.6593C 12.9177 52.8245 10.8947 53.4069 8.28176 53.4069C 2.18475 53.4069 0.470751 50.7061 0.274098 50.3885C -0.09117 49.753 0.161753 48.932 0.836019 48.5879C 1.51028 48.2436 2.35316 48.482 2.71843 49.0908ZM 85.3523 32.2772L 89.3197 32.2772C 90.0969 32.2772 90.7923 32.8356 90.8106 33.5678C 90.8294 34.3249 90.2045 34.9251 89.4061 34.9251L 87.0455 34.9251C 86.8863 34.9251 86.7573 35.0468 86.7573 35.1967L 86.7573 41.0347C 86.7573 41.1848 86.8863 41.3063 87.0455 41.3063L 97.153 41.3063C 98.0538 41.3063 98.7331 42.1043 98.5176 42.9456C 98.362 43.5533 97.7418 43.9542 97.0785 43.9542L 87.0455 43.9542C 86.8863 43.9542 86.7573 44.0757 86.7573 44.2258L 86.7573 50.1431C 86.7573 50.2932 86.8863 50.4149 87.0455 50.4149L 94.0529 50.4149C 94.8514 50.4149 95.4763 51.0149 95.4575 51.772C 95.4392 52.5042 94.744 53.0626 93.9668 53.0626L 85.3523 53.0626C 84.5937 53.0626 83.9473 52.4802 83.9473 51.7388L 83.9473 33.6011C 83.9473 32.8598 84.5937 32.2772 85.3523 32.2772ZM 98.7802 50.4101C 99.5574 50.4101 100.188 51.0038 100.188 51.7364C 100.188 52.4687 99.5574 53.0626 98.7802 53.0626C 98.003 53.0626 97.3728 52.4687 97.3728 51.7364C 97.3728 51.0038 98.003 50.4101 98.7802 50.4101Z"/>
</defs>
</svg>
